<svg width="252" height="56" viewBox="0 0 252 56" fill="none" xmlns="http://www.w3.org/2000/svg" xmlns:xlink="http://www.w3.org/1999/xlink">
<path d="M251.372,43.127C240.86,58.921 224.214,54.338 219.214,50.75C217.086,52.029 213.356,54.834 208.38,54.51C197.784,53.821 193.99,40.401 193.99,40.401C194.066,40.455 190.834,41.39 189.087,41.373C189.065,45.308 185.227,54.709 174.868,54.589C163.244,54.455 160.881,39.106 160.881,39.106C160.881,39.106 159.724,40.53 155.326,41.948C155.547,38.924 155.386,54.129 141.454,54.352C130.44,54.529 127.467,38.87 127.467,38.87C127.467,38.87 125.556,40.629 121.853,41.239C122.089,38.166 121.706,54.404 107.773,54.352C98.356,54.318 95.139,44.706 95.389,43.372C95.708,41.672 92.207,54.591 83.06,54.39C79.286,54.292 76.472,51.87 74.707,48.641C72.343,51.038 68.911,54.39 65.061,54.39C58.151,54.39 55.104,49.267 55.62,34.636C55.664,32.9 55.523,32.218 53.576,31.958C52.408,31.786 51.211,31.458 49.946,31.286C49.54,32.486 46.098,54 34.265,54.408C30.295,54.545 28.124,51.497 26.341,49.235C23.608,52.439 20.001,54.51 14.862,54.51C6.157,54.51 0.226,48.273 0.226,40.579C0.226,32.885 6.157,26.648 14.862,26.648C16.401,26.648 16.833,26.844 18.239,27.208C15.348,3.873 22.177,0.226 28.151,0.226C33.886,0.226 43.684,12.024 29.897,41.95C32.958,50.876 39.557,50.371 42.728,31.996C43.374,28.261 41.648,23.221 44.332,22.518C49.239,21.232 49.759,25.089 52.06,25.732C54.492,26.411 55.912,26.345 58.248,26.777C62.238,27.468 63.795,29.368 63.309,33.599C62.725,38.953 61.704,46.746 64.818,47.696C67.064,48.386 71.164,44.259 71.883,42C72.602,39.742 72.753,38.969 72.816,37.313C72.914,33.772 73.036,31.177 73.717,28.5C74.009,27.464 74.341,26.778 75.663,26.731C76.752,26.706 78.742,26.416 79.618,27.02C80.785,27.798 80.639,28.587 80.505,30.663C79.147,60.271 89.599,45.49 92.716,33.656C91.606,20.274 92.368,0.471 101.83,0.139C106.75,-0.034 108.926,3.46 109.165,6.068C109.842,13.434 106.051,25.634 101.065,33.839C98.215,50.581 113.524,53.892 115.972,40.528C111.967,38.84 107.638,32.009 111.161,28.679C113.137,26.811 121.365,29.495 121.499,35.35C125.535,34.393 126.074,32.373 126.13,32.708C125.021,19.326 126.05,0.471 135.512,0.139C140.432,-0.034 142.607,3.46 142.846,6.068C143.523,13.434 139.732,25.635 134.747,33.84C131.897,50.581 147.206,53.892 149.653,40.529C146.688,40.021 140.428,32.755 144.04,28.68C145.97,26.502 154.168,31.031 155.085,35.543C158.962,34.571 159.489,32.616 159.544,32.945C158.435,19.563 159.464,0.708 168.926,0.376C173.846,0.204 176.021,3.697 176.261,6.305C176.937,13.671 173.146,25.872 168.16,34.077C165.311,50.819 180.62,54.129 183.068,40.765C178.993,40.164 173.201,32.492 177.863,28.567C179.725,26.998 186.841,31.069 188.507,35.714C190.821,35.635 192.262,34.927 192.571,34.856C188.876,19.146 191.626,0.297 201.806,0.139C207.308,0.054 212.686,2.775 210.326,17.721C208.072,31.981 199.971,37.965 199.99,38.057C200.462,39.765 204.618,54.062 215.086,46.519C214.544,45.431 214,44.321 213.698,42.975C211.962,35.135 215.37,26.281 224.632,24.85C229.94,24.03 234.938,26.32 235.728,31.482C237.028,39.929 228.422,46.047 225.15,47.374C223.684,46.636 238.438,55.021 247.192,38.216C247.7,37.256 248.312,37.338 249.106,37.832C249.666,38.182 252.856,40.86 251.372,43.127ZM21.194,38.503C20.749,37.323 19.834,34.722 19.511,33.595C17.731,32.223 16.46,32 14.174,32C9.096,32 6.106,36.162 6.106,40.649C6.106,45.137 9.363,49.299 14.442,49.299C18.843,49.299 22.193,46.647 23.215,42.892C22.5,41.429 21.79,40.083 21.194,38.503ZM28.026,6.403C24.457,6.403 23.247,13.948 23.482,20.385C23.69,26.076 25.484,31.086 26.415,33.331C26.651,33.612 26.607,33.429 26.818,33.727C33.014,21.694 30.444,6.403 28.026,6.403ZM102.339,6.64C97.727,6.171 97.757,23.2 98.329,27.02C100.725,23.624 104.886,7.554 102.339,6.64ZM136.021,6.64C131.408,6.171 131.438,23.2 132.011,27.02C134.406,23.624 138.568,7.554 136.021,6.64ZM169.435,6.877C164.822,6.408 164.852,23.437 165.425,27.257C167.82,23.861 171.982,7.791 169.435,6.877ZM202.314,5.643C195.128,6.922 196.801,28.158 197.893,31.882C206.358,21.578 206.532,5.256 202.314,5.643ZM229.248,32.181C228.882,30.827 227.054,30.103 225.794,30.281C222.186,30.718 218.686,34.701 220.04,40.765C220.342,42.115 221.096,43.358 221.084,43.317C229.16,38.515 229.846,34.732 229.248,32.181ZM77.078,22.044C76.047,22.044 75.039,21.773 74.181,21.265C73.323,20.757 72.655,20.036 72.26,19.191C71.865,18.347 71.762,17.418 71.963,16.521C72.164,15.625 72.661,14.801 73.39,14.155C74.119,13.509 75.048,13.068 76.06,12.89C77.071,12.712 78.119,12.803 79.072,13.153C80.025,13.503 80.839,14.095 81.412,14.855C81.985,15.615 82.291,16.509 82.291,17.423C82.291,18.03 82.156,18.63 81.894,19.191C81.632,19.752 81.248,20.261 80.764,20.69C80.28,21.119 79.705,21.46 79.073,21.692C78.441,21.924 77.763,22.044 77.078,22.044Z" clip-rule="evenodd" fill-rule="evenodd" fill="#0D0C22"/>
</svg>
