<svg width="178" height="51" viewBox="0 0 178 51" fill="none" xmlns="http://www.w3.org/2000/svg">
<rect width="178" height="51" rx="7" fill="#B9FF66"/>
<path d="M19.44 39.56C17.3333 39.56 15.4667 39.1867 13.84 38.44C12.2133 37.6933 10.9333 36.6 10 35.16C9.09333 33.6933 8.64 31.92 8.64 29.84V28.84H12.92V29.84C12.92 31.8133 13.5067 33.2933 14.68 34.28C15.88 35.2667 17.4667 35.76 19.44 35.76C21.44 35.76 22.9467 35.3467 23.96 34.52C24.9733 33.6667 25.48 32.5733 25.48 31.24C25.48 30.36 25.24 29.64 24.76 29.08C24.28 28.52 23.6 28.08 22.72 27.76C21.84 27.4133 20.7867 27.0933 19.56 26.8L18.08 26.44C16.2933 26.0133 14.7333 25.4933 13.4 24.88C12.0933 24.24 11.08 23.4 10.36 22.36C9.64 21.32 9.28 19.9867 9.28 18.36C9.28 16.7067 9.68 15.2933 10.48 14.12C11.3067 12.9467 12.44 12.04 13.88 11.4C15.32 10.76 17.0133 10.44 18.96 10.44C20.9067 10.44 22.64 10.7733 24.16 11.44C25.7067 12.1067 26.92 13.0933 27.8 14.4C28.68 15.7067 29.12 17.3467 29.12 19.32V20.76H24.84V19.32C24.84 18.12 24.5867 17.1467 24.08 16.4C23.6 15.6533 22.92 15.1067 22.04 14.76C21.16 14.4133 20.1333 14.24 18.96 14.24C17.2533 14.24 15.92 14.6 14.96 15.32C14.0267 16.0133 13.56 16.9867 13.56 18.24C13.56 19.0933 13.76 19.8 14.16 20.36C14.5867 20.8933 15.2 21.3333 16 21.68C16.8 22.0267 17.8 22.3333 19 22.6L20.48 22.96C22.2933 23.36 23.8933 23.88 25.28 24.52C26.6667 25.1333 27.76 25.9733 28.56 27.04C29.36 28.1067 29.76 29.48 29.76 31.16C29.76 32.84 29.3333 34.3067 28.48 35.56C27.6533 36.8133 26.4667 37.8 24.92 38.52C23.3733 39.2133 21.5467 39.56 19.44 39.56ZM43.455 39.56C41.455 39.56 39.7083 39.1467 38.215 38.32C36.7217 37.4667 35.5483 36.28 34.695 34.76C33.8683 33.2133 33.455 31.4267 33.455 29.4V28.92C33.455 26.8667 33.8683 25.08 34.695 23.56C35.5217 22.0133 36.6683 20.8267 38.135 20C39.6283 19.1467 41.3483 18.72 43.295 18.72C45.1883 18.72 46.8417 19.1467 48.255 20C49.695 20.8267 50.815 21.9867 51.615 23.48C52.415 24.9733 52.815 26.72 52.815 28.72V30.28H37.655C37.7083 32.0133 38.2817 33.4 39.375 34.44C40.495 35.4533 41.8817 35.96 43.535 35.96C45.0817 35.96 46.2417 35.6133 47.015 34.92C47.815 34.2267 48.4283 33.4267 48.855 32.52L52.255 34.28C51.8817 35.0267 51.335 35.8133 50.615 36.64C49.9217 37.4667 49.0017 38.16 47.855 38.72C46.7083 39.28 45.2417 39.56 43.455 39.56ZM37.695 27.12H48.615C48.5083 25.6267 47.975 24.4667 47.015 23.64C46.055 22.7867 44.8017 22.36 43.255 22.36C41.7083 22.36 40.4417 22.7867 39.455 23.64C38.495 24.4667 37.9083 25.6267 37.695 27.12ZM57.7744 39V19.28H61.8144V21.6H62.4544C62.7744 20.7733 63.281 20.1733 63.9744 19.8C64.6944 19.4 65.5744 19.2 66.6144 19.2H68.9744V22.92H66.4544C65.121 22.92 64.0277 23.2933 63.1744 24.04C62.321 24.76 61.8944 25.88 61.8944 27.4V39H57.7744ZM77.8031 39L71.1631 19.28H75.5231L80.7631 35.96H81.4031L86.6431 19.28H91.0031L84.3631 39H77.8031ZM95.0009 39V19.28H99.1209V39H95.0009ZM97.0809 16.6C96.2809 16.6 95.6009 16.3467 95.0409 15.84C94.5076 15.3067 94.2409 14.6267 94.2409 13.8C94.2409 12.9733 94.5076 12.3067 95.0409 11.8C95.6009 11.2667 96.2809 11 97.0809 11C97.9076 11 98.5876 11.2667 99.1209 11.8C99.6543 12.3067 99.9209 12.9733 99.9209 13.8C99.9209 14.6267 99.6543 15.3067 99.1209 15.84C98.5876 16.3467 97.9076 16.6 97.0809 16.6ZM114.395 39.56C112.502 39.56 110.782 39.16 109.235 38.36C107.715 37.56 106.502 36.4 105.595 34.88C104.715 33.36 104.275 31.5333 104.275 29.4V28.88C104.275 26.7467 104.715 24.9333 105.595 23.44C106.502 21.92 107.715 20.76 109.235 19.96C110.782 19.1333 112.502 18.72 114.395 18.72C116.289 18.72 117.902 19.0667 119.235 19.76C120.569 20.4533 121.635 21.3733 122.435 22.52C123.262 23.6667 123.795 24.9333 124.035 26.32L120.035 27.16C119.902 26.28 119.622 25.48 119.195 24.76C118.769 24.04 118.169 23.4667 117.395 23.04C116.622 22.6133 115.649 22.4 114.475 22.4C113.329 22.4 112.289 22.6667 111.355 23.2C110.449 23.7067 109.729 24.4533 109.195 25.44C108.662 26.4 108.395 27.5733 108.395 28.96V29.32C108.395 30.7067 108.662 31.8933 109.195 32.88C109.729 33.8667 110.449 34.6133 111.355 35.12C112.289 35.6267 113.329 35.88 114.475 35.88C116.209 35.88 117.529 35.44 118.435 34.56C119.342 33.6533 119.915 32.5067 120.155 31.12L124.155 32.04C123.835 33.4 123.262 34.6533 122.435 35.8C121.635 36.9467 120.569 37.8667 119.235 38.56C117.902 39.2267 116.289 39.56 114.395 39.56ZM137.947 39.56C135.947 39.56 134.201 39.1467 132.707 38.32C131.214 37.4667 130.041 36.28 129.187 34.76C128.361 33.2133 127.947 31.4267 127.947 29.4V28.92C127.947 26.8667 128.361 25.08 129.187 23.56C130.014 22.0133 131.161 20.8267 132.627 20C134.121 19.1467 135.841 18.72 137.787 18.72C139.681 18.72 141.334 19.1467 142.747 20C144.187 20.8267 145.307 21.9867 146.107 23.48C146.907 24.9733 147.307 26.72 147.307 28.72V30.28H132.147C132.201 32.0133 132.774 33.4 133.867 34.44C134.987 35.4533 136.374 35.96 138.027 35.96C139.574 35.96 140.734 35.6133 141.507 34.92C142.307 34.2267 142.921 33.4267 143.347 32.52L146.747 34.28C146.374 35.0267 145.827 35.8133 145.107 36.64C144.414 37.4667 143.494 38.16 142.347 38.72C141.201 39.28 139.734 39.56 137.947 39.56ZM132.187 27.12H143.107C143.001 25.6267 142.467 24.4667 141.507 23.64C140.547 22.7867 139.294 22.36 137.747 22.36C136.201 22.36 134.934 22.7867 133.947 23.64C132.987 24.4667 132.401 25.6267 132.187 27.12ZM160.347 39.56C157.84 39.56 155.76 39 154.107 37.88C152.453 36.76 151.44 35.0667 151.067 32.8L154.907 31.88C155.12 32.9733 155.48 33.84 155.987 34.48C156.493 35.12 157.12 35.5733 157.867 35.84C158.64 36.1067 159.467 36.24 160.347 36.24C161.653 36.24 162.653 35.9867 163.347 35.48C164.067 34.9733 164.427 34.32 164.427 33.52C164.427 32.72 164.093 32.1333 163.427 31.76C162.76 31.3867 161.773 31.08 160.467 30.84L159.107 30.6C157.773 30.36 156.56 30.0133 155.467 29.56C154.373 29.1067 153.507 28.48 152.867 27.68C152.227 26.88 151.907 25.8533 151.907 24.6C151.907 22.7333 152.6 21.2933 153.987 20.28C155.373 19.24 157.213 18.72 159.507 18.72C161.72 18.72 163.533 19.2267 164.947 20.24C166.387 21.2267 167.32 22.5733 167.747 24.28L163.907 25.36C163.667 24.16 163.16 23.32 162.387 22.84C161.613 22.3333 160.653 22.08 159.507 22.08C158.387 22.08 157.507 22.2933 156.867 22.72C156.227 23.12 155.907 23.6933 155.907 24.44C155.907 25.24 156.213 25.8267 156.827 26.2C157.467 26.5733 158.32 26.8533 159.387 27.04L160.787 27.28C162.2 27.52 163.493 27.8533 164.667 28.28C165.84 28.7067 166.76 29.32 167.427 30.12C168.12 30.92 168.467 31.9867 168.467 33.32C168.467 35.2933 167.733 36.8267 166.267 37.92C164.8 39.0133 162.827 39.56 160.347 39.56Z" fill="black"/>
</svg>
