<svg width="260" height="96" viewBox="0 0 260 96" fill="none" xmlns="http://www.w3.org/2000/svg" xmlns:xlink="http://www.w3.org/1999/xlink">
<g style="mix-blend-mode:luminosity">
<path d="M28.74,26.212L28.74,44.388L9.906,44.388L9.906,26.212L0.964,26.212L0.964,69.599L9.906,69.599L9.906,52.014L28.74,52.014L28.74,69.599L37.681,69.599L37.681,26.212L28.74,26.212Z" fill="#33475B"/>
<path d="M66.298,55.573C66.298,57.312 65.519,58.98 64.131,60.209C62.744,61.439 60.862,62.129 58.901,62.129C56.939,62.129 55.057,61.439 53.67,60.209C52.283,58.98 51.503,57.312 51.503,55.573L51.503,36.99L43.022,36.99L43.022,55.573C43.022,59.302 44.693,62.878 47.668,65.515C50.643,68.152 54.678,69.633 58.885,69.633C63.093,69.633 67.127,68.152 70.102,65.515C73.077,62.878 74.749,59.302 74.749,55.573L74.749,36.99L66.298,36.99L66.298,55.573Z" fill="#33475B"/>
<path d="M129.141,38.905C129.141,35.096 131.984,33.889 135.099,33.889C137.609,33.889 140.925,35.582 143.094,37.636L148.649,31.835C145.876,28.511 140.251,26.212 135.646,26.212C126.446,26.212 119.792,30.988 119.792,38.905C119.792,53.594 140.049,48.935 140.049,57.155C140.049,59.69 137.272,61.93 134.091,61.93C129.075,61.93 127.45,59.756 125.145,57.457L118.981,63.138C122.924,67.429 127.787,69.607 133.614,69.607C142.354,69.607 149.385,64.773 149.385,57.217C149.385,40.909 129.127,45.976 129.127,38.905Z" fill="#33475B"/>
<path d="M254.462,62.668C249.45,62.668 248.028,60.746 248.028,57.803L248.028,44.776L255.816,44.776L255.816,38.175L248.028,38.175L248.028,29.466L239.428,32.886L239.428,59.422C239.428,66.209 244.71,69.63 251.956,69.63C253.094,69.648 254.228,69.567 255.348,69.389L257.446,62.543C256.5,62.602 255.414,62.66 254.462,62.66Z" fill="#33475B"/>
<path d="M98.583,37.209C94.382,37.209 91.451,38.289 88.617,40.754L88.617,26.473L80.122,26.473L80.122,52.942C80.122,62.851 88.205,69.639 97.287,69.639C107.363,69.639 116.226,62.731 116.226,53.428C116.226,44.241 108.068,37.213 98.583,37.213L98.583,37.209ZM98.531,62.063C96.625,62.063 94.761,61.562 93.176,60.624C91.591,59.685 90.356,58.351 89.626,56.79C88.897,55.229 88.706,53.512 89.078,51.854C89.45,50.197 90.368,48.675 91.716,47.481C93.064,46.286 94.781,45.473 96.651,45.143C98.52,44.813 100.458,44.982 102.219,45.629C103.98,46.276 105.486,47.37 106.545,48.775C107.604,50.18 108.169,51.832 108.169,53.521C108.169,55.787 107.154,57.959 105.346,59.561C103.539,61.163 101.087,62.063 98.531,62.063Z" fill="#33475B"/>
<path d="M190.82,53.03C190.82,43.711 181.975,36.819 171.881,36.819C162.799,36.819 154.716,43.606 154.716,53.515L154.716,80L163.211,80L163.211,65.7C166.041,68.161 168.977,69.245 173.173,69.245C182.658,69.245 190.816,62.221 190.816,53.03L190.82,53.03ZM182.777,52.937C182.777,54.626 182.211,56.278 181.152,57.683C180.093,59.087 178.588,60.182 176.827,60.829C175.066,61.475 173.128,61.645 171.258,61.315C169.389,60.985 167.671,60.172 166.323,58.977C164.975,57.782 164.057,56.26 163.685,54.603C163.314,52.946 163.504,51.229 164.234,49.668C164.963,48.107 166.199,46.773 167.784,45.834C169.369,44.896 171.232,44.395 173.138,44.395C175.695,44.395 178.146,45.295 179.954,46.897C181.761,48.499 182.777,50.671 182.777,52.937Z" fill="#33475B"/>
<path d="M218.177,36.699L218.177,29.213C219.293,28.751 220.239,28.018 220.903,27.098C221.566,26.178 221.922,25.11 221.927,24.018L221.927,23.843C221.923,22.317 221.237,20.855 220.019,19.776C218.802,18.697 217.152,18.089 215.43,18.085L215.233,18.085C213.511,18.089 211.862,18.697 210.644,19.776C209.427,20.855 208.741,22.317 208.736,23.843L208.736,24.018C208.742,25.11 209.097,26.178 209.761,27.098C210.425,28.018 211.37,28.751 212.486,29.213L212.486,36.699C209.277,37.134 206.254,38.313 203.724,40.116L180.532,24.123C180.697,23.595 180.785,23.051 180.794,22.504C180.796,21.219 180.368,19.963 179.564,18.893C178.76,17.824 177.617,16.991 176.278,16.497C174.939,16.004 173.466,15.874 172.044,16.123C170.622,16.372 169.315,16.99 168.289,17.897C167.262,18.805 166.563,19.961 166.278,21.221C165.994,22.481 166.137,23.787 166.69,24.975C167.243,26.162 168.181,27.178 169.386,27.893C170.59,28.608 172.007,28.99 173.456,28.992C174.73,28.988 175.979,28.686 177.079,28.118L199.882,43.851C197.828,46.598 196.757,49.829 196.808,53.124C196.858,56.418 198.029,59.623 200.167,62.318L193.228,68.469C192.67,68.311 192.09,68.228 191.506,68.22C190.314,68.22 189.15,68.533 188.159,69.12C187.169,69.706 186.396,70.54 185.941,71.516C185.485,72.491 185.365,73.565 185.598,74.6C185.83,75.636 186.404,76.587 187.246,77.334C188.089,78.081 189.162,78.589 190.331,78.795C191.499,79.001 192.71,78.895 193.811,78.491C194.912,78.087 195.853,77.403 196.514,76.525C197.176,75.647 197.53,74.615 197.53,73.559C197.522,73.041 197.427,72.527 197.249,72.033L204.114,65.949C206.355,67.466 208.958,68.509 211.723,68.999C214.488,69.488 217.343,69.412 220.07,68.774C222.796,68.137 225.323,66.956 227.456,65.321C229.589,63.687 231.272,61.642 232.378,59.343C233.483,57.043 233.981,54.551 233.834,52.055C233.687,49.559 232.898,47.126 231.528,44.942C230.158,42.757 228.243,40.879 225.929,39.451C223.616,38.022 220.964,37.081 218.177,36.699L218.177,36.699ZM215.334,61.324C213.455,61.324 211.619,60.83 210.057,59.905C208.495,58.98 207.278,57.666 206.559,56.128C205.84,54.589 205.652,52.897 206.018,51.264C206.385,49.631 207.29,48.131 208.618,46.954C209.946,45.777 211.639,44.975 213.481,44.65C215.323,44.325 217.233,44.492 218.969,45.129C220.704,45.766 222.188,46.845 223.231,48.229C224.275,49.614 224.832,51.241 224.832,52.906C224.832,55.139 223.831,57.28 222.05,58.859C220.269,60.437 217.853,61.324 215.334,61.324Z" fill="#FF7A59"/>
</g>
</svg>
