<svg width="250" height="60" viewBox="0 0 250 60" fill="none" xmlns="http://www.w3.org/2000/svg" xmlns:xlink="http://www.w3.org/1999/xlink">
<path d="M33.761,56.133C29.993,56.719 26.159,56.895 22.192,57.363L10.094,25.957L10.094,58.711C6.325,59.063 2.888,59.531 -0.682,60L-0.682,0L9.367,0L23.118,34.043L23.118,0L33.761,0L33.761,56.133ZM54.587,21.973C58.686,21.973 64.966,21.797 68.734,21.797L68.734,31.172C64.04,31.172 58.553,31.172 54.587,31.347L54.587,45.293C60.801,44.942 67.016,44.472 73.296,44.297L73.296,53.319L44.009,55.371L44.009,0L73.296,0L73.296,9.375L54.587,9.375L54.587,21.973L54.587,21.973ZM112.632,9.375L101.658,9.375L101.658,52.5C98.088,52.5 94.518,52.5 91.08,52.617L91.08,9.375L80.106,9.375L80.106,0L112.633,0L112.632,9.375L112.632,9.375ZM129.821,21.328L144.3,21.328L144.3,30.703L129.821,30.703L129.821,51.973L119.441,51.973L119.441,0L148.993,0L148.993,9.375L129.821,9.375L129.821,21.328L129.821,21.328ZM166.182,43.77C172.198,43.886 178.28,44.297 184.165,44.59L184.165,53.848C174.711,53.32 165.257,52.793 155.605,52.617L155.605,0L166.182,0L166.182,43.77ZM193.089,54.492C196.461,54.668 200.032,54.844 203.47,55.195L203.47,0L193.089,0L193.089,54.492L193.089,54.492ZM249.814,0L236.392,28.535L249.814,60C245.846,59.531 241.88,58.887 237.914,58.301L230.31,40.957L222.576,56.895C218.742,56.308 215.038,56.133 211.206,55.664L224.824,28.183L212.526,0L223.898,0L230.84,15.762L238.244,0L249.814,0L249.814,0Z" fill="#D81F26"/>
</svg>
