<svg width="292" height="70" viewBox="0 0 292 70" fill="none" xmlns="http://www.w3.org/2000/svg" xmlns:xlink="http://www.w3.org/1999/xlink">
<path d="M101.618,57.55L101.618,28.44L102.203,28.44L126.111,57.55L133.635,57.55L133.635,14.801L125.275,14.801L125.275,43.838L124.69,43.838L100.782,14.801L93.259,14.801L93.259,57.55L101.618,57.55ZM157.292,58.21C168.326,58.21 175.097,51.904 175.097,41.345C175.097,30.86 168.326,24.48 157.292,24.48C146.341,24.48 139.486,30.86 139.486,41.345C139.57,51.904 146.257,58.21 157.292,58.21ZM157.292,52.05C151.44,52.05 148.096,48.164 148.096,41.345C148.096,34.599 151.44,30.64 157.292,30.64C163.143,30.64 166.487,34.599 166.487,41.345C166.487,48.164 163.143,52.05 157.292,52.05ZM182.704,17.221L182.704,25.36L176.853,25.36L176.853,31.226L182.704,31.226L182.704,48.898C182.704,55.203 186.048,57.697 194.575,57.697C196.163,57.697 197.751,57.55 199.005,57.33L199.005,51.611C198.002,51.684 197.333,51.757 196.163,51.757C192.652,51.757 191.064,50.364 191.064,47.138L191.064,31.226L199.005,31.226L199.005,25.36L191.064,25.36L191.064,17.221L182.704,17.221ZM204.021,57.55L212.381,57.55L212.381,25.14L204.021,25.14L204.021,57.55ZM208.201,19.787C210.959,19.787 213.217,17.808 213.217,15.388C213.217,12.895 210.959,10.915 208.201,10.915C205.443,10.915 203.185,12.895 203.185,15.388C203.185,17.808 205.443,19.787 208.201,19.787ZM235.285,58.21C246.319,58.21 253.091,51.904 253.091,41.345C253.091,30.86 246.319,24.48 235.285,24.48C224.335,24.48 217.479,30.86 217.479,41.345C217.479,51.904 224.167,58.21 235.285,58.21ZM235.285,52.05C229.433,52.05 226.091,48.164 226.091,41.345C226.091,34.599 229.433,30.64 235.285,30.64C241.053,30.64 244.481,34.599 244.481,41.345C244.397,48.164 241.053,52.05 235.285,52.05ZM258.023,57.55L266.383,57.55L266.383,38.705C266.383,33.939 269.559,30.933 274.491,30.933C279.591,30.933 281.931,33.426 281.931,38.339L281.931,57.55L290.291,57.55L290.291,36.579C290.291,28.806 285.777,24.48 277.585,24.48C272.067,24.48 268.389,26.68 266.633,30.346L266.049,30.346L266.049,25.14L257.939,25.14C258.023,25.14 258.023,57.55 258.023,57.55Z" fill="#000000"/>
<path d="M13.106,12.065C15.539,13.805 16.419,13.667 20.975,13.393L63.889,11.104C64.821,11.104 64.044,10.28 63.734,10.188L56.59,5.656C55.244,4.741 53.381,3.642 49.912,3.917L8.396,6.617C6.894,6.755 6.584,7.441 7.205,7.945L13.106,12.065ZM15.695,20.901L15.695,60.82C15.695,62.971 16.885,63.75 19.629,63.612L66.788,61.186C69.532,61.049 69.842,59.584 69.842,57.844L69.842,18.2C69.842,16.46 69.066,15.499 67.409,15.636L18.128,18.2C16.316,18.337 15.695,19.161 15.695,20.901ZM62.233,23.052C62.543,24.242 62.233,25.478 60.887,25.616L58.609,26.028L58.609,55.509C56.642,56.425 54.83,56.974 53.277,56.974C50.844,56.974 50.223,56.288 48.411,54.273L33.554,33.627L33.554,53.587L38.265,54.502C38.265,54.502 38.265,56.929 34.486,56.929L24.029,57.478C23.718,56.929 24.029,55.601 25.064,55.326L27.808,54.64L27.808,28.271L24.029,27.996C23.718,26.806 24.495,25.066 26.617,24.929L37.851,24.242L53.329,45.118L53.329,26.669L49.395,26.257C49.084,24.792 50.326,23.693 51.828,23.556L62.233,23.052ZM4.927,2.955L48.152,0.163C53.432,-0.249 54.83,0.025 58.143,2.177L71.913,10.738C74.191,12.203 74.967,12.615 74.967,14.217L74.967,61.232C74.967,64.162 73.776,65.901 69.532,66.176L19.37,68.877C16.161,69.014 14.659,68.602 13.003,66.725L2.805,55.052C0.993,52.9 0.217,51.298 0.217,49.421L0.217,7.625C0.217,5.198 1.459,3.23 4.927,2.955Z" clip-rule="evenodd" fill-rule="evenodd" fill="#000000"/>
</svg>
