<svg width="222" height="44" viewBox="0 0 222 44" fill="none" xmlns="http://www.w3.org/2000/svg" xmlns:xlink="http://www.w3.org/1999/xlink">
<path d="M179.667,13.194C180.511,14.486 180.788,15.955 180.879,17.606L180.999,19.808L180.999,35.201L181.121,37.405C181.366,41.004 184.361,43.665 188.453,43.891L190.926,44L190.926,19.808L191.049,17.606C191.15,15.973 191.424,14.476 192.282,13.176C193.155,11.842 194.41,10.735 195.919,9.967C197.428,9.199 199.138,8.796 200.878,8.798C202.618,8.801 204.328,9.21 205.834,9.983C207.34,10.756 208.59,11.867 209.458,13.204C210.302,14.495 210.566,15.992 210.666,17.606L210.79,19.801L210.79,35.201L210.912,37.405C211.168,41.022 214.138,43.684 218.244,43.891L220.716,44L220.716,17.606C220.716,12.939 218.626,8.463 214.902,5.163C211.18,1.862 206.13,0.006 200.864,0.005C198.046,0.002 195.259,0.532 192.69,1.561C190.122,2.589 187.83,4.091 185.969,5.967C184.107,4.092 181.815,2.59 179.247,1.561C176.679,0.533 173.892,0.001 171.074,0.002C166.951,0.002 163.125,1.111 159.955,3.026C158.021,1.113 153.695,0.002 151.211,0.002L151.211,44L153.695,43.891C157.849,43.649 160.852,41.059 161.014,37.405L161.146,35.201L161.146,19.808L161.269,17.606C161.373,15.946 161.634,14.486 162.481,13.185C163.355,11.852 164.609,10.746 166.117,9.976C167.625,9.207 169.334,8.802 171.074,8.801C172.815,8.801 174.526,9.207 176.034,9.979C177.542,10.75 178.795,11.859 179.667,13.194L179.667,13.194ZM9.727,43.894L12.211,44L49.442,44L49.32,41.806C48.984,38.188 46.093,35.546 41.999,35.31L39.515,35.201L17.179,35.201L46.959,8.799L46.836,6.606C46.643,2.952 43.63,0.312 39.515,0.111L37.031,0.012L-0.2,0.002L-0.078,2.204C0.248,5.786 3.18,8.484 7.241,8.692L9.727,8.801L32.063,8.801L2.284,35.204L2.406,37.405C2.651,41.032 5.604,43.658 9.727,43.891L9.727,43.894ZM141.466,6.442C143.771,8.485 145.6,10.91 146.848,13.58C148.095,16.249 148.738,19.11 148.738,21.999C148.738,24.888 148.095,27.749 146.848,30.418C145.6,33.087 143.771,35.512 141.466,37.555C136.809,41.68 130.494,43.997 123.91,43.997C117.326,43.997 111.011,41.68 106.354,37.555C96.661,28.965 96.661,15.033 106.354,6.442C108.657,4.4 111.392,2.78 114.401,1.675C117.411,0.57 120.637,0 123.894,0C127.157,-0.002 130.389,0.566 133.404,1.672C136.419,2.778 139.159,4.4 141.466,6.445L141.466,6.442ZM134.442,12.672C137.234,15.149 138.802,18.506 138.802,22.007C138.802,25.508 137.234,28.865 134.442,31.341C131.648,33.816 127.86,35.206 123.91,35.206C119.96,35.206 116.172,33.816 113.378,31.341C110.586,28.865 109.018,25.508 109.018,22.007C109.018,18.506 110.586,15.149 113.378,12.672C116.172,10.198 119.96,8.808 123.91,8.808C127.86,8.808 131.648,10.198 134.442,12.672L134.442,12.672ZM71.799,0C75.057,0.001 78.283,0.57 81.293,1.676C84.302,2.782 87.037,4.402 89.34,6.445C99.035,15.033 99.035,28.967 89.34,37.555C84.682,41.68 78.368,43.997 71.784,43.997C65.2,43.997 58.885,41.68 54.228,37.555C44.535,28.965 44.535,15.033 54.228,6.442C56.531,4.4 59.265,2.78 62.275,1.675C65.284,0.57 68.51,0 71.768,0L71.799,0ZM82.316,12.668C85.109,15.144 86.677,18.502 86.677,22.003C86.677,25.505 85.109,28.863 82.316,31.339C79.522,33.814 75.734,35.204 71.784,35.204C67.834,35.204 64.046,33.814 61.252,31.339C58.46,28.863 56.891,25.505 56.891,22.005C56.891,18.504 58.46,15.146 61.252,12.67C64.046,10.196 67.834,8.806 71.784,8.806C75.734,8.806 79.522,10.196 82.316,12.67L82.316,12.668Z" clip-rule="evenodd" fill-rule="evenodd" fill="#2D8CFF"/>
</svg>
